<?xml version="1.0" standalone="no"?>
<!DOCTYPE svg PUBLIC "-//W3C//DTD SVG 20010904//EN"
 "http://www.w3.org/TR/2001/REC-SVG-20010904/DTD/svg10.dtd">
<svg version="1.0" xmlns="http://www.w3.org/2000/svg"
 width="980.000000pt" height="960.000000pt" viewBox="0 0 980.000000 960.000000"
 preserveAspectRatio="xMidYMid meet">

<g transform="translate(0.000000,960.000000) scale(0.100000,-0.100000)"
fill="#000000" stroke="none">
<path d="M4555 9590 c-445 -40 -851 -171 -1225 -396 -674 -404 -1158 -1089
-1310 -1854 -46 -230 -55 -325 -54 -585 1 -259 18 -416 70 -635 179 -759 658
-1407 1331 -1800 285 -167 610 -285 932 -340 180 -30 306 -40 525 -40 376 0
696 -31 1036 -100 1644 -333 3003 -1503 3359 -2892 28 -109 61 -287 75 -405
l7 -53 -4401 0 -4402 0 7 67 c48 477 219 970 481 1390 148 236 288 414 489
621 306 316 658 580 1055 791 146 79 181 106 211 164 63 121 13 266 -111 330
-85 44 -148 36 -280 -32 -1145 -593 -1964 -1579 -2244 -2706 -68 -276 -96
-502 -103 -847 l-6 -268 4903 0 4903 0 -6 262 c-6 284 -20 425 -68 655 -212
1026 -905 1981 -1920 2646 -496 325 -1024 555 -1638 714 l-35 8 115 72 c447
279 799 661 1034 1123 139 273 228 552 281 875 25 154 30 554 10 729 -61 530
-247 989 -575 1421 -98 130 -378 409 -509 509 -410 311 -856 495 -1361 561
-143 19 -442 27 -576 15z m522 -505 c413 -54 818 -227 1153 -493 248 -197 482
-486 627 -777 85 -170 167 -410 203 -595 59 -302 53 -671 -15 -973 -74 -327
-238 -668 -453 -942 -76 -97 -290 -308 -387 -381 -477 -363 -1042 -532 -1612
-485 -992 83 -1823 784 -2068 1745 -54 215 -69 342 -69 586 -1 389 69 691 239
1035 124 253 264 445 467 641 367 355 808 570 1313 638 140 19 457 20 602 1z"/>
</g>
</svg>
